<svg xmlns="http://www.w3.org/2000/svg" viewBox="0 0 512 512" role="img" aria-label="aureen">
  <defs>
    <linearGradient id="bg" x1="0" y1="0" x2="1" y2="1">
      <stop offset="0" stop-color="#FBF8F0"/>
      <stop offset="0.5" stop-color="#FAF6EF"/>
      <stop offset="1" stop-color="#F8F2F2"/>
    </linearGradient>

    <!-- Colour gathers in the middle and clears toward the perimeter. -->
    <radialGradient id="wash" cx="0.5" cy="0.46" r="0.62">
      <stop offset="0" stop-color="#D37AD6" stop-opacity="0.46"/>
      <stop offset="0.42" stop-color="#D37AD6" stop-opacity="0.38"/>
      <stop offset="0.78" stop-color="#D37AD6" stop-opacity="0.19"/>
      <stop offset="1" stop-color="#D37AD6" stop-opacity="0.09"/>
    </radialGradient>

    <!-- A broad internal reflection across the upper body. -->
    <radialGradient id="bloom" cx="0.40" cy="0.28" r="0.72">
      <stop offset="0" stop-color="#ffffff" stop-opacity="0.32"/>
      <stop offset="0.55" stop-color="#ffffff" stop-opacity="0.12"/>
      <stop offset="1" stop-color="#ffffff" stop-opacity="0"/>
    </radialGradient>

    <!-- The iridescent bands, cycling three times across the figure. -->
    <linearGradient id="iris" x1="0" y1="0.1" x2="1" y2="0.9">
      <stop offset="0" stop-color="#D5B0EB" stop-opacity="0.298"/>
      <stop offset="0.048" stop-color="#E3BDE8" stop-opacity="0.492"/>
      <stop offset="0.095" stop-color="#FEC4F7" stop-opacity="0.661"/>
      <stop offset="0.143" stop-color="#ECABD6" stop-opacity="0.784"/>
      <stop offset="0.19" stop-color="#EEA8C3" stop-opacity="0.845"/>
      <stop offset="0.238" stop-color="#F9BEC6" stop-opacity="0.836"/>
      <stop offset="0.286" stop-color="#F8D9D0" stop-opacity="0.759"/>
      <stop offset="0.333" stop-color="#D5B0EB" stop-opacity="0.622"/>
      <stop offset="0.381" stop-color="#E3BDE8" stop-opacity="0.444"/>
      <stop offset="0.429" stop-color="#FEC4F7" stop-opacity="0.347"/>
      <stop offset="0.476" stop-color="#ECABD6" stop-opacity="0.537"/>
      <stop offset="0.524" stop-color="#EEA8C3" stop-opacity="0.697"/>
      <stop offset="0.571" stop-color="#F9BEC6" stop-opacity="0.806"/>
      <stop offset="0.619" stop-color="#F8D9D0" stop-opacity="0.849"/>
      <stop offset="0.667" stop-color="#D5B0EB" stop-opacity="0.823"/>
      <stop offset="0.714" stop-color="#E3BDE8" stop-opacity="0.729"/>
      <stop offset="0.762" stop-color="#FEC4F7" stop-opacity="0.581"/>
      <stop offset="0.81" stop-color="#ECABD6" stop-opacity="0.396"/>
      <stop offset="0.857" stop-color="#EEA8C3" stop-opacity="0.396"/>
      <stop offset="0.905" stop-color="#F9BEC6" stop-opacity="0.581"/>
      <stop offset="0.952" stop-color="#F8D9D0" stop-opacity="0.729"/>
      <stop offset="1" stop-color="#D5B0EB" stop-opacity="0.823"/>
    </linearGradient>
    <linearGradient id="iris2" x1="0" y1="0.1" x2="1" y2="0.9">
      <stop offset="0" stop-color="#ECABD6" stop-opacity="0.348"/>
      <stop offset="0.048" stop-color="#EEA8C3" stop-opacity="0.564"/>
      <stop offset="0.095" stop-color="#F9BEC6" stop-opacity="0.75"/>
      <stop offset="0.143" stop-color="#F8D9D0" stop-opacity="0.883"/>
      <stop offset="0.19" stop-color="#D5B0EB" stop-opacity="0.946"/>
      <stop offset="0.238" stop-color="#E3BDE8" stop-opacity="0.931"/>
      <stop offset="0.286" stop-color="#FEC4F7" stop-opacity="0.839"/>
      <stop offset="0.333" stop-color="#ECABD6" stop-opacity="0.683"/>
      <stop offset="0.381" stop-color="#EEA8C3" stop-opacity="0.482"/>
      <stop offset="0.429" stop-color="#F9BEC6" stop-opacity="0.403"/>
      <stop offset="0.476" stop-color="#F8D9D0" stop-opacity="0.614"/>
      <stop offset="0.524" stop-color="#D5B0EB" stop-opacity="0.789"/>
      <stop offset="0.571" stop-color="#E3BDE8" stop-opacity="0.906"/>
      <stop offset="0.619" stop-color="#FEC4F7" stop-opacity="0.95"/>
      <stop offset="0.667" stop-color="#ECABD6" stop-opacity="0.915"/>
      <stop offset="0.714" stop-color="#EEA8C3" stop-opacity="0.805"/>
      <stop offset="0.762" stop-color="#F9BEC6" stop-opacity="0.636"/>
      <stop offset="0.81" stop-color="#F8D9D0" stop-opacity="0.427"/>
      <stop offset="0.857" stop-color="#D5B0EB" stop-opacity="0.458"/>
      <stop offset="0.905" stop-color="#E3BDE8" stop-opacity="0.662"/>
      <stop offset="0.952" stop-color="#FEC4F7" stop-opacity="0.825"/>
      <stop offset="1" stop-color="#ECABD6" stop-opacity="0.924"/>
    </linearGradient>

    <clipPath id="body"><path d="M0,-1.2 C0.208,-1.2 0.556,-1.02 0.562,-0.706 C0.572,-0.604 0.59,-0.5 0.6,-0.42 C0.64,-0.17 0.744,0.06 0.744,0.29 C0.744,0.43 0.712,0.546 0.632,0.55 C0.582,0.556 0.588,0.512 0.582,0.462 C0.596,0.72 0.6,0.9 0.6,1.048 C0.6,1.156 0.532,1.2 0.432,1.2 C0.318,1.2 0.166,1.16 0.149,1.048 C0.146,0.88 0.1,0.684 0,0.684 C-0.1,0.684 -0.146,0.88 -0.149,1.048 C-0.166,1.16 -0.318,1.2 -0.432,1.2 C-0.532,1.2 -0.6,1.156 -0.6,1.048 C-0.6,0.9 -0.596,0.72 -0.582,0.462 C-0.588,0.512 -0.582,0.556 -0.632,0.55 C-0.712,0.546 -0.744,0.43 -0.744,0.29 C-0.744,0.06 -0.64,-0.17 -0.6,-0.42 C-0.59,-0.5 -0.572,-0.604 -0.562,-0.706 C-0.556,-1.02 -0.208,-1.2 0,-1.2 Z"/></clipPath>
  </defs>

  <rect width="512" height="512" rx="0" fill="url(#bg)"/>

  <g transform="translate(256 256) scale(136)">
    <g clip-path="url(#body)" opacity="0.82">
      <rect x="-1" y="-1.4" width="2" height="2.8" fill="url(#wash)"/>
      <rect x="-1" y="-1.4" width="2" height="2.8" fill="url(#bloom)"/>
      <path d="M0,-1.2 C0.208,-1.2 0.556,-1.02 0.562,-0.706 C0.572,-0.604 0.59,-0.5 0.6,-0.42 C0.64,-0.17 0.744,0.06 0.744,0.29 C0.744,0.43 0.712,0.546 0.632,0.55 C0.582,0.556 0.588,0.512 0.582,0.462 C0.596,0.72 0.6,0.9 0.6,1.048 C0.6,1.156 0.532,1.2 0.432,1.2 C0.318,1.2 0.166,1.16 0.149,1.048 C0.146,0.88 0.1,0.684 0,0.684 C-0.1,0.684 -0.146,0.88 -0.149,1.048 C-0.166,1.16 -0.318,1.2 -0.432,1.2 C-0.532,1.2 -0.6,1.156 -0.6,1.048 C-0.6,0.9 -0.596,0.72 -0.582,0.462 C-0.588,0.512 -0.582,0.556 -0.632,0.55 C-0.712,0.546 -0.744,0.43 -0.744,0.29 C-0.744,0.06 -0.64,-0.17 -0.6,-0.42 C-0.59,-0.5 -0.572,-0.604 -0.562,-0.706 C-0.556,-1.02 -0.208,-1.2 0,-1.2 Z" fill="none" stroke="url(#iris)" stroke-width="0.060" opacity="0.5"/>
      <path d="M0,-1.2 C0.208,-1.2 0.556,-1.02 0.562,-0.706 C0.572,-0.604 0.59,-0.5 0.6,-0.42 C0.64,-0.17 0.744,0.06 0.744,0.29 C0.744,0.43 0.712,0.546 0.632,0.55 C0.582,0.556 0.588,0.512 0.582,0.462 C0.596,0.72 0.6,0.9 0.6,1.048 C0.6,1.156 0.532,1.2 0.432,1.2 C0.318,1.2 0.166,1.16 0.149,1.048 C0.146,0.88 0.1,0.684 0,0.684 C-0.1,0.684 -0.146,0.88 -0.149,1.048 C-0.166,1.16 -0.318,1.2 -0.432,1.2 C-0.532,1.2 -0.6,1.156 -0.6,1.048 C-0.6,0.9 -0.596,0.72 -0.582,0.462 C-0.588,0.512 -0.582,0.556 -0.632,0.55 C-0.712,0.546 -0.744,0.43 -0.744,0.29 C-0.744,0.06 -0.64,-0.17 -0.6,-0.42 C-0.59,-0.5 -0.572,-0.604 -0.562,-0.706 C-0.556,-1.02 -0.208,-1.2 0,-1.2 Z" fill="none" stroke="url(#iris2)" stroke-width="0.026" opacity="0.6"/>
      <!-- Rim light, not an outline. It is what gives the form a silhouette now
           that nothing is stroked around it. -->
      <path d="M0,-1.2 C0.208,-1.2 0.556,-1.02 0.562,-0.706 C0.572,-0.604 0.59,-0.5 0.6,-0.42 C0.64,-0.17 0.744,0.06 0.744,0.29 C0.744,0.43 0.712,0.546 0.632,0.55 C0.582,0.556 0.588,0.512 0.582,0.462 C0.596,0.72 0.6,0.9 0.6,1.048 C0.6,1.156 0.532,1.2 0.432,1.2 C0.318,1.2 0.166,1.16 0.149,1.048 C0.146,0.88 0.1,0.684 0,0.684 C-0.1,0.684 -0.146,0.88 -0.149,1.048 C-0.166,1.16 -0.318,1.2 -0.432,1.2 C-0.532,1.2 -0.6,1.156 -0.6,1.048 C-0.6,0.9 -0.596,0.72 -0.582,0.462 C-0.588,0.512 -0.582,0.556 -0.632,0.55 C-0.712,0.546 -0.744,0.43 -0.744,0.29 C-0.744,0.06 -0.64,-0.17 -0.6,-0.42 C-0.59,-0.5 -0.572,-0.604 -0.562,-0.706 C-0.556,-1.02 -0.208,-1.2 0,-1.2 Z" fill="none" stroke="#ffffff" stroke-opacity="0.42" stroke-width="0.042"
            stroke-linejoin="round"/>
      <path d="M0,-1.2 C0.208,-1.2 0.556,-1.02 0.562,-0.706 C0.572,-0.604 0.59,-0.5 0.6,-0.42 C0.64,-0.17 0.744,0.06 0.744,0.29 C0.744,0.43 0.712,0.546 0.632,0.55 C0.582,0.556 0.588,0.512 0.582,0.462 C0.596,0.72 0.6,0.9 0.6,1.048 C0.6,1.156 0.532,1.2 0.432,1.2 C0.318,1.2 0.166,1.16 0.149,1.048 C0.146,0.88 0.1,0.684 0,0.684 C-0.1,0.684 -0.146,0.88 -0.149,1.048 C-0.166,1.16 -0.318,1.2 -0.432,1.2 C-0.532,1.2 -0.6,1.156 -0.6,1.048 C-0.6,0.9 -0.596,0.72 -0.582,0.462 C-0.588,0.512 -0.582,0.556 -0.632,0.55 C-0.712,0.546 -0.744,0.43 -0.744,0.29 C-0.744,0.06 -0.64,-0.17 -0.6,-0.42 C-0.59,-0.5 -0.572,-0.604 -0.562,-0.706 C-0.556,-1.02 -0.208,-1.2 0,-1.2 Z" fill="none" stroke="#ffffff" stroke-opacity="0.75" stroke-width="0.013"
            stroke-linejoin="round"/>
    </g>

    <!-- specular on the right, fill light on the left -->
    <ellipse cx="0.268" cy="-0.870" rx="0.058" ry="0.235"
             transform="rotate(8.6 0.268 -0.870)" fill="#ffffff" opacity="0.46"/>
    <ellipse cx="-0.238" cy="-0.905" rx="0.036" ry="0.115"
             transform="rotate(-10.9 -0.238 -0.905)" fill="#ffffff" opacity="0.20"/>


    <!-- The default face: dot eyes at 36% down, small curved smile at 45%. -->
    <g fill="#2F2D27">
      <rect x="-0.1893" y="-0.3216" width="0.1191" height="0.1712" rx="0.0595"/>
      <rect x="0.0702" y="-0.3216" width="0.1191" height="0.1712" rx="0.0595"/>
    </g>
    <path d="M-0.0893,-0.1477 Q0,-0.0748 0.0893,-0.1477" fill="none"
          stroke="#2F2D27" stroke-width="0.0327" stroke-linecap="round"/>
  </g>
</svg>
